<mxfile host="Electron" agent="Mozilla/5.0 (Windows NT 10.0; Win64; x64) AppleWebKit/537.36 (KHTML, like Gecko) draw.io/24.7.17 Chrome/128.0.6613.36 Electron/32.0.1 Safari/537.36" version="24.7.17">
  <diagram name="Page-1" id="MSvuumhzngdayqG8WD3y">
    <mxGraphModel dx="1257" dy="749" grid="1" gridSize="10" guides="1" tooltips="1" connect="1" arrows="1" fold="1" page="1" pageScale="1" pageWidth="850" pageHeight="1100" math="0" shadow="0">
      <root>
        <mxCell id="0" />
        <mxCell id="1" parent="0" />
        <mxCell id="W0CJCS5IZoMDa6PIkjS3-1" value="Start Program" style="rounded=1;whiteSpace=wrap;arcSize=50;strokeWidth=2;" vertex="1" parent="1">
          <mxGeometry x="931" y="20" width="122" height="34" as="geometry" />
        </mxCell>
        <mxCell id="W0CJCS5IZoMDa6PIkjS3-2" value="Main Menu Options" style="rhombus;strokeWidth=2;whiteSpace=wrap;" vertex="1" parent="1">
          <mxGeometry x="900" y="104" width="185" height="185" as="geometry" />
        </mxCell>
        <mxCell id="W0CJCS5IZoMDa6PIkjS3-3" value="Admin Menu Options" style="rhombus;strokeWidth=2;whiteSpace=wrap;" vertex="1" parent="1">
          <mxGeometry x="713" y="376" width="197" height="197" as="geometry" />
        </mxCell>
        <mxCell id="W0CJCS5IZoMDa6PIkjS3-4" value="VoterMenu" style="whiteSpace=wrap;strokeWidth=2;" vertex="1" parent="1">
          <mxGeometry x="1737" y="450" width="137" height="49" as="geometry" />
        </mxCell>
        <mxCell id="W0CJCS5IZoMDa6PIkjS3-5" value="Candidate Menu Options" style="rhombus;strokeWidth=2;whiteSpace=wrap;" vertex="1" parent="1">
          <mxGeometry x="1347" y="362" width="224" height="224" as="geometry" />
        </mxCell>
        <mxCell id="W0CJCS5IZoMDa6PIkjS3-6" value="End Program" style="rounded=1;whiteSpace=wrap;arcSize=50;strokeWidth=2;" vertex="1" parent="1">
          <mxGeometry x="498" y="457" width="113" height="34" as="geometry" />
        </mxCell>
        <mxCell id="W0CJCS5IZoMDa6PIkjS3-7" value="AddCandidate" style="whiteSpace=wrap;strokeWidth=2;" vertex="1" parent="1">
          <mxGeometry x="1006" y="737" width="161" height="49" as="geometry" />
        </mxCell>
        <mxCell id="W0CJCS5IZoMDa6PIkjS3-8" value="AddVoter" style="whiteSpace=wrap;strokeWidth=2;" vertex="1" parent="1">
          <mxGeometry x="218" y="737" width="127" height="49" as="geometry" />
        </mxCell>
        <mxCell id="W0CJCS5IZoMDa6PIkjS3-9" value="ViewResults" style="whiteSpace=wrap;strokeWidth=2;" vertex="1" parent="1">
          <mxGeometry x="563" y="737" width="146" height="49" as="geometry" />
        </mxCell>
        <mxCell id="W0CJCS5IZoMDa6PIkjS3-10" value="ClearSystem" style="whiteSpace=wrap;strokeWidth=2;" vertex="1" parent="1">
          <mxGeometry x="20" y="737" width="148" height="49" as="geometry" />
        </mxCell>
        <mxCell id="W0CJCS5IZoMDa6PIkjS3-11" value="Authentication Status" style="rhombus;strokeWidth=2;whiteSpace=wrap;" vertex="1" parent="1">
          <mxGeometry x="1637" y="659" width="206" height="206" as="geometry" />
        </mxCell>
        <mxCell id="W0CJCS5IZoMDa6PIkjS3-12" value="Vote" style="whiteSpace=wrap;strokeWidth=2;" vertex="1" parent="1">
          <mxGeometry x="1693" y="937" width="93" height="49" as="geometry" />
        </mxCell>
        <mxCell id="W0CJCS5IZoMDa6PIkjS3-13" value="UpdateVote" style="whiteSpace=wrap;strokeWidth=2;" vertex="1" parent="1">
          <mxGeometry x="1461" y="1059" width="144" height="49" as="geometry" />
        </mxCell>
        <mxCell id="W0CJCS5IZoMDa6PIkjS3-14" value="ListCandidates" style="whiteSpace=wrap;strokeWidth=2;" vertex="1" parent="1">
          <mxGeometry x="1377" y="737" width="165" height="49" as="geometry" />
        </mxCell>
        <mxCell id="W0CJCS5IZoMDa6PIkjS3-15" value="Log Actions to File" style="rounded=1;whiteSpace=wrap;arcSize=50;strokeWidth=2;" vertex="1" parent="1">
          <mxGeometry x="595" y="1181" width="155" height="34" as="geometry" />
        </mxCell>
        <mxCell id="W0CJCS5IZoMDa6PIkjS3-16" value="" style="curved=1;startArrow=none;endArrow=block;exitX=0.5;exitY=1;entryX=0.5;entryY=0;rounded=0;" edge="1" parent="1" source="W0CJCS5IZoMDa6PIkjS3-1" target="W0CJCS5IZoMDa6PIkjS3-2">
          <mxGeometry relative="1" as="geometry">
            <Array as="points" />
          </mxGeometry>
        </mxCell>
        <mxCell id="W0CJCS5IZoMDa6PIkjS3-17" value="1: Administration Login" style="curved=1;startArrow=none;endArrow=block;exitX=0.16;exitY=1;entryX=0.81;entryY=0;rounded=0;" edge="1" parent="1" source="W0CJCS5IZoMDa6PIkjS3-2" target="W0CJCS5IZoMDa6PIkjS3-3">
          <mxGeometry relative="1" as="geometry">
            <Array as="points">
              <mxPoint x="904" y="326" />
            </Array>
          </mxGeometry>
        </mxCell>
        <mxCell id="W0CJCS5IZoMDa6PIkjS3-18" value="2: Voter Login" style="curved=1;startArrow=none;endArrow=block;exitX=1;exitY=0.58;entryX=0.5;entryY=-0.01;rounded=0;" edge="1" parent="1" source="W0CJCS5IZoMDa6PIkjS3-2" target="W0CJCS5IZoMDa6PIkjS3-4">
          <mxGeometry relative="1" as="geometry">
            <Array as="points">
              <mxPoint x="1805" y="326" />
            </Array>
          </mxGeometry>
        </mxCell>
        <mxCell id="W0CJCS5IZoMDa6PIkjS3-19" value="3: Candidate Menu" style="curved=1;startArrow=none;endArrow=block;exitX=1;exitY=0.62;entryX=0.78;entryY=0;rounded=0;" edge="1" parent="1" source="W0CJCS5IZoMDa6PIkjS3-2" target="W0CJCS5IZoMDa6PIkjS3-5">
          <mxGeometry relative="1" as="geometry">
            <Array as="points">
              <mxPoint x="1543" y="326" />
            </Array>
          </mxGeometry>
        </mxCell>
        <mxCell id="W0CJCS5IZoMDa6PIkjS3-20" value="4: Exit" style="curved=1;startArrow=none;endArrow=block;exitX=0;exitY=0.65;entryX=0.51;entryY=0;rounded=0;" edge="1" parent="1" source="W0CJCS5IZoMDa6PIkjS3-2" target="W0CJCS5IZoMDa6PIkjS3-6">
          <mxGeometry relative="1" as="geometry">
            <Array as="points">
              <mxPoint x="555" y="326" />
            </Array>
          </mxGeometry>
        </mxCell>
        <mxCell id="W0CJCS5IZoMDa6PIkjS3-21" value="1: Add Candidate" style="curved=1;startArrow=none;endArrow=block;exitX=1;exitY=0.73;entryX=0.55;entryY=0;rounded=0;" edge="1" parent="1" source="W0CJCS5IZoMDa6PIkjS3-3" target="W0CJCS5IZoMDa6PIkjS3-7">
          <mxGeometry relative="1" as="geometry">
            <Array as="points">
              <mxPoint x="1129" y="622" />
            </Array>
          </mxGeometry>
        </mxCell>
        <mxCell id="W0CJCS5IZoMDa6PIkjS3-22" value="2: Add Voter" style="curved=1;startArrow=none;endArrow=block;exitX=0;exitY=0.66;entryX=0.58;entryY=0;rounded=0;" edge="1" parent="1" source="W0CJCS5IZoMDa6PIkjS3-3" target="W0CJCS5IZoMDa6PIkjS3-8">
          <mxGeometry relative="1" as="geometry">
            <Array as="points">
              <mxPoint x="342" y="622" />
            </Array>
          </mxGeometry>
        </mxCell>
        <mxCell id="W0CJCS5IZoMDa6PIkjS3-23" value="3: View Results" style="curved=1;startArrow=none;endArrow=block;exitX=0.5;exitY=1;entryX=0.71;entryY=0;rounded=0;" edge="1" parent="1" source="W0CJCS5IZoMDa6PIkjS3-3" target="W0CJCS5IZoMDa6PIkjS3-9">
          <mxGeometry relative="1" as="geometry">
            <Array as="points">
              <mxPoint x="812" y="622" />
            </Array>
          </mxGeometry>
        </mxCell>
        <mxCell id="W0CJCS5IZoMDa6PIkjS3-24" value="4: Clear System" style="curved=1;startArrow=none;endArrow=block;exitX=0;exitY=0.61;entryX=0.56;entryY=0;rounded=0;" edge="1" parent="1" source="W0CJCS5IZoMDa6PIkjS3-3" target="W0CJCS5IZoMDa6PIkjS3-10">
          <mxGeometry relative="1" as="geometry">
            <Array as="points">
              <mxPoint x="148" y="622" />
            </Array>
          </mxGeometry>
        </mxCell>
        <mxCell id="W0CJCS5IZoMDa6PIkjS3-25" value="5: Back to Main Menu" style="curved=1;startArrow=none;endArrow=block;exitX=0.19;exitY=0;entryX=0;entryY=0.74;rounded=0;" edge="1" parent="1" source="W0CJCS5IZoMDa6PIkjS3-3" target="W0CJCS5IZoMDa6PIkjS3-2">
          <mxGeometry relative="1" as="geometry">
            <Array as="points">
              <mxPoint x="720" y="326" />
            </Array>
          </mxGeometry>
        </mxCell>
        <mxCell id="W0CJCS5IZoMDa6PIkjS3-26" value="Authenticate" style="curved=1;startArrow=none;endArrow=block;exitX=0.5;exitY=0.99;entryX=0.73;entryY=0;rounded=0;" edge="1" parent="1" source="W0CJCS5IZoMDa6PIkjS3-4" target="W0CJCS5IZoMDa6PIkjS3-11">
          <mxGeometry relative="1" as="geometry">
            <Array as="points">
              <mxPoint x="1805" y="622" />
            </Array>
          </mxGeometry>
        </mxCell>
        <mxCell id="W0CJCS5IZoMDa6PIkjS3-27" value="Success" style="curved=1;startArrow=none;endArrow=block;exitX=0.5;exitY=1;entryX=0.5;entryY=0.01;rounded=0;" edge="1" parent="1" source="W0CJCS5IZoMDa6PIkjS3-11" target="W0CJCS5IZoMDa6PIkjS3-12">
          <mxGeometry relative="1" as="geometry">
            <Array as="points" />
          </mxGeometry>
        </mxCell>
        <mxCell id="W0CJCS5IZoMDa6PIkjS3-28" value="Failure" style="curved=1;startArrow=none;endArrow=block;exitX=0.26;exitY=0;entryX=1;entryY=0.6;rounded=0;" edge="1" parent="1" source="W0CJCS5IZoMDa6PIkjS3-11" target="W0CJCS5IZoMDa6PIkjS3-2">
          <mxGeometry relative="1" as="geometry">
            <Array as="points">
              <mxPoint x="1674" y="622" />
              <mxPoint x="1674" y="326" />
            </Array>
          </mxGeometry>
        </mxCell>
        <mxCell id="W0CJCS5IZoMDa6PIkjS3-29" value="Cast Vote" style="curved=1;startArrow=none;endArrow=block;exitX=0.5;exitY=1.01;entryX=1;entryY=0.08;rounded=0;" edge="1" parent="1" source="W0CJCS5IZoMDa6PIkjS3-12" target="W0CJCS5IZoMDa6PIkjS3-13">
          <mxGeometry relative="1" as="geometry">
            <Array as="points">
              <mxPoint x="1740" y="1023" />
            </Array>
          </mxGeometry>
        </mxCell>
        <mxCell id="W0CJCS5IZoMDa6PIkjS3-30" value="Log Action" style="curved=1;startArrow=none;endArrow=block;exitX=0;exitY=0.2;entryX=1;entryY=0.75;rounded=0;" edge="1" parent="1" source="W0CJCS5IZoMDa6PIkjS3-13" target="W0CJCS5IZoMDa6PIkjS3-2">
          <mxGeometry relative="1" as="geometry">
            <Array as="points">
              <mxPoint x="1248" y="1023" />
              <mxPoint x="1248" y="326" />
            </Array>
          </mxGeometry>
        </mxCell>
        <mxCell id="W0CJCS5IZoMDa6PIkjS3-31" value="1: List Candidates" style="curved=1;startArrow=none;endArrow=block;exitX=0.79;exitY=1;entryX=0.59;entryY=0;rounded=0;" edge="1" parent="1" source="W0CJCS5IZoMDa6PIkjS3-5" target="W0CJCS5IZoMDa6PIkjS3-14">
          <mxGeometry relative="1" as="geometry">
            <Array as="points">
              <mxPoint x="1544" y="622" />
            </Array>
          </mxGeometry>
        </mxCell>
        <mxCell id="W0CJCS5IZoMDa6PIkjS3-32" value="2: Back to Main Menu" style="curved=1;startArrow=none;endArrow=block;exitX=0.22;exitY=0;entryX=1;entryY=0.67;rounded=0;" edge="1" parent="1" source="W0CJCS5IZoMDa6PIkjS3-5" target="W0CJCS5IZoMDa6PIkjS3-2">
          <mxGeometry relative="1" as="geometry">
            <Array as="points">
              <mxPoint x="1375" y="326" />
            </Array>
          </mxGeometry>
        </mxCell>
        <mxCell id="W0CJCS5IZoMDa6PIkjS3-33" value="Save to File" style="curved=1;startArrow=none;endArrow=block;exitX=0.46;exitY=0;entryX=0.7;entryY=1;rounded=0;" edge="1" parent="1" source="W0CJCS5IZoMDa6PIkjS3-7" target="W0CJCS5IZoMDa6PIkjS3-2">
          <mxGeometry relative="1" as="geometry">
            <Array as="points">
              <mxPoint x="1045" y="622" />
              <mxPoint x="1045" y="326" />
            </Array>
          </mxGeometry>
        </mxCell>
        <mxCell id="W0CJCS5IZoMDa6PIkjS3-34" value="Save to File" style="curved=1;startArrow=none;endArrow=block;exitX=0.42;exitY=0;entryX=0;entryY=0.58;rounded=0;" edge="1" parent="1" source="W0CJCS5IZoMDa6PIkjS3-8" target="W0CJCS5IZoMDa6PIkjS3-2">
          <mxGeometry relative="1" as="geometry">
            <Array as="points">
              <mxPoint x="227" y="622" />
              <mxPoint x="227" y="326" />
            </Array>
          </mxGeometry>
        </mxCell>
        <mxCell id="W0CJCS5IZoMDa6PIkjS3-35" value="Display Results" style="curved=1;startArrow=none;endArrow=block;exitX=0.22;exitY=0;entryX=0;entryY=0.61;rounded=0;" edge="1" parent="1" source="W0CJCS5IZoMDa6PIkjS3-9" target="W0CJCS5IZoMDa6PIkjS3-2">
          <mxGeometry relative="1" as="geometry">
            <Array as="points">
              <mxPoint x="408" y="622" />
              <mxPoint x="408" y="326" />
            </Array>
          </mxGeometry>
        </mxCell>
        <mxCell id="W0CJCS5IZoMDa6PIkjS3-36" value="Delete Files" style="curved=1;startArrow=none;endArrow=block;exitX=0.45;exitY=0;entryX=0;entryY=0.57;rounded=0;" edge="1" parent="1" source="W0CJCS5IZoMDa6PIkjS3-10" target="W0CJCS5IZoMDa6PIkjS3-2">
          <mxGeometry relative="1" as="geometry">
            <Array as="points">
              <mxPoint x="55" y="622" />
              <mxPoint x="55" y="326" />
            </Array>
          </mxGeometry>
        </mxCell>
        <mxCell id="W0CJCS5IZoMDa6PIkjS3-37" value="Display Candidates" style="curved=1;startArrow=none;endArrow=block;exitX=0.4;exitY=0;entryX=0.2;entryY=1;rounded=0;" edge="1" parent="1" source="W0CJCS5IZoMDa6PIkjS3-14" target="W0CJCS5IZoMDa6PIkjS3-5">
          <mxGeometry relative="1" as="geometry">
            <Array as="points">
              <mxPoint x="1371" y="622" />
            </Array>
          </mxGeometry>
        </mxCell>
        <mxCell id="W0CJCS5IZoMDa6PIkjS3-38" value="Log Voter Action" style="curved=1;startArrow=none;endArrow=block;exitX=0.5;exitY=1.01;entryX=1;entryY=0.37;rounded=0;" edge="1" parent="1" source="W0CJCS5IZoMDa6PIkjS3-13" target="W0CJCS5IZoMDa6PIkjS3-15">
          <mxGeometry relative="1" as="geometry">
            <Array as="points">
              <mxPoint x="1533" y="1145" />
            </Array>
          </mxGeometry>
        </mxCell>
        <mxCell id="W0CJCS5IZoMDa6PIkjS3-39" value="Log Admin Action" style="curved=1;startArrow=none;endArrow=block;exitX=0.5;exitY=1;entryX=1;entryY=0.22;rounded=0;" edge="1" parent="1" source="W0CJCS5IZoMDa6PIkjS3-7" target="W0CJCS5IZoMDa6PIkjS3-15">
          <mxGeometry relative="1" as="geometry">
            <Array as="points">
              <mxPoint x="1087" y="1145" />
            </Array>
          </mxGeometry>
        </mxCell>
        <mxCell id="W0CJCS5IZoMDa6PIkjS3-40" value="Log Admin Action" style="curved=1;startArrow=none;endArrow=block;exitX=0.5;exitY=1;entryX=0;entryY=0.2;rounded=0;" edge="1" parent="1" source="W0CJCS5IZoMDa6PIkjS3-8" target="W0CJCS5IZoMDa6PIkjS3-15">
          <mxGeometry relative="1" as="geometry">
            <Array as="points">
              <mxPoint x="282" y="1145" />
            </Array>
          </mxGeometry>
        </mxCell>
        <mxCell id="W0CJCS5IZoMDa6PIkjS3-41" value="Log Admin Action" style="curved=1;startArrow=none;endArrow=block;exitX=0.5;exitY=1;entryX=0;entryY=0.3;rounded=0;" edge="1" parent="1" source="W0CJCS5IZoMDa6PIkjS3-10" target="W0CJCS5IZoMDa6PIkjS3-15">
          <mxGeometry relative="1" as="geometry">
            <Array as="points">
              <mxPoint x="94" y="1145" />
            </Array>
          </mxGeometry>
        </mxCell>
      </root>
    </mxGraphModel>
  </diagram>
</mxfile>
